<svg version="1.0" xmlns="http://www.w3.org/2000/svg"
 width="668px" style="transform:scale(1,1.001);" height="375.75px" viewBox="0 0 320.000000 180.000000"
 preserveAspectRatio="xMidYMid meet">
<g transform="translate(0.000000,180.000000) scale(0.100000,-0.100000)"
fill="#000000" stroke="none">
<path d="M0 905 l0 -895 906 0 907 0 -8 43 c-13 68 -9 83 33 149 23 35 60 94 83 133 45
73 65 95 112 121 16 9 36 33 47 58 10 24 24 47 30 51 17 11 3 80 -31 150 -16
33 -29 67 -29 76 0 29 -23 39 -62 29 -99 -28 -144 67 -74 153 55 68 56 87 2
143 -52 54 -56 76 -27 141 35 76 146 117 220 79 42 -22 54 -42 62 -104 6 -42
14 -62 32 -77 177 -146 184 -152 225 -237 22 -46 47 -105 56 -133 58 -191 60
-224 16 -265 -17 -15 -30 -38 -30 -50 0 -44 -23 -99 -61 -145 -56 -68 -109
-168 -109 -207 0 -18 3 -50 6 -71 l7 -37 443 0 444 0 0 895 0 895 -1600 0
-1600 0 0 -895z"/>
<path d="M2083 171 c-12 -10 -36 -30 -53 -45 -17 -14 -31 -34 -30 -43 0 -10 1 -30 1
-45 1 -28 2 -28 66 -28 l66 0 -9 53 c-4 28 -8 69 -7 90 1 42 -3 44 -34 18z"/>
</g>
</svg>
